# xmcd CD database file
#
# Track frame offsets:
#	150
#	18327
#	40077
#	71575
#	89280
#	107047
#	132817
#	158527
#	181722
#	213307
#	241762
#	265112
#	293777
#
# Disc length: 4333 seconds
#
# Revision: 0
# Processed by: cddbd v1.5.2PL0 Copyright (c) Steve Scherf et al.
# Submitted via: CDex 1.70beta3
#
DISCID=a210eb0d
DTITLE=Sirius B - Best of Sirius B 1998-2006
DYEAR=2007
DGENRE=Jazz
TTITLE0=Samba Selvagem
TTITLE1=High 'n' Dry
TTITLE2=Marlborough Nights
TTITLE3=Batucada
TTITLE4=Somthing New
TTITLE5=Gatinha
TTITLE6=Clarear
TTITLE7=Bagunca
TTITLE8=Watermelon Man
TTITLE9=Um Grande Carnaval
TTITLE10=Rhtym Of The Samba
TTITLE11=Star Jamming (Jazz Mix)
TTITLE12=Samba Selvagam (Sunaga T Experience Remix)
EXTD=YEAR: 2007
EXTT0=
EXTT1=
EXTT2=
EXTT3=
EXTT4=
EXTT5=
EXTT6=
EXTT7=
EXTT8=
EXTT9=
EXTT10=
EXTT11=
EXTT12=
PLAYORDER=
